<svg xmlns="http://www.w3.org/2000/svg" width="100%" viewBox="0 0 720 206" role="img" aria-label="Signal roadmap to v1.0.0: interactive charts, review workflow, audit export, and the data.sa explorer are done; test-and-freeze, national data, scheduled refresh, and map view remain.">
<title>Signal roadmap to v1.0.0</title>
<text x="10" y="18" font-family="system-ui, sans-serif" font-size="13" font-weight="700" fill="#888">Signal — roadmap to v1.0.0</text>

<g font-family="system-ui, sans-serif">
<g><rect x="10" y="32" width="166" height="60" rx="8" fill="#16a34a"/>
<text x="22" y="54" font-size="11" fill="#ffffff" opacity="0.85">01 · done</text>
<text x="22" y="76" font-size="13" font-weight="600" fill="#ffffff">Interactive charts</text></g>
<g><rect x="188" y="32" width="166" height="60" rx="8" fill="#16a34a"/>
<text x="200" y="54" font-size="11" fill="#ffffff" opacity="0.85">02 · done</text>
<text x="200" y="76" font-size="13" font-weight="600" fill="#ffffff">Review workflow</text></g>
<g><rect x="366" y="32" width="166" height="60" rx="8" fill="#16a34a"/>
<text x="378" y="54" font-size="11" fill="#ffffff" opacity="0.85">03 · done</text>
<text x="378" y="76" font-size="13" font-weight="600" fill="#ffffff">Audit export</text></g>
<g><rect x="544" y="32" width="166" height="60" rx="8" fill="#16a34a"/>
<text x="556" y="54" font-size="11" fill="#ffffff" opacity="0.85">08 · done</text>
<text x="556" y="76" font-size="13" font-weight="600" fill="#ffffff">data.sa explorer</text></g>

<g><rect x="10" y="104" width="166" height="60" rx="8" fill="#2563eb"/>
<text x="22" y="126" font-size="11" fill="#ffffff" opacity="0.85">04</text>
<text x="22" y="148" font-size="13" font-weight="600" fill="#ffffff">Test &amp; freeze API</text></g>
<g><rect x="188" y="104" width="166" height="60" rx="8" fill="#d97706"/>
<text x="200" y="126" font-size="11" fill="#ffffff" opacity="0.85">05</text>
<text x="200" y="148" font-size="13" font-weight="600" fill="#ffffff">National data</text></g>
<g><rect x="366" y="104" width="166" height="60" rx="8" fill="#d97706"/>
<text x="378" y="126" font-size="11" fill="#ffffff" opacity="0.85">06</text>
<text x="378" y="148" font-size="13" font-weight="600" fill="#ffffff">Scheduled refresh</text></g>
<g><rect x="544" y="104" width="166" height="60" rx="8" fill="#16a34a"/>
<text x="556" y="126" font-size="11" fill="#ffffff" opacity="0.85">07 · done</text>
<text x="556" y="148" font-size="13" font-weight="600" fill="#ffffff">Map view</text></g>
</g>

<g font-family="system-ui, sans-serif" font-size="11" fill="#888">
<rect x="10" y="182" width="12" height="12" rx="3" fill="#16a34a"/><text x="28" y="192">Done</text>
<rect x="80" y="182" width="12" height="12" rx="3" fill="#2563eb"/><text x="98" y="192">Core (ships in 1.0.0)</text>
<rect x="248" y="182" width="12" height="12" rx="3" fill="#d97706"/><text x="266" y="192">Larger effort</text>
</g>
</svg>
