<svg xmlns="http://www.w3.org/2000/svg" width="100%" viewBox="0 0 720 214" role="img" aria-label="Signal roadmap to version 1.0.0: epic 01 interactive charts done; epics 02 to 07 planned.">
<title>Signal roadmap to v1.0.0</title>
<text x="10" y="18" font-family="system-ui, sans-serif" font-size="13" font-weight="700" fill="#888">Signal — roadmap to v1.0.0</text>

<g font-family="system-ui, sans-serif">
<g>
<rect x="10" y="34" width="166" height="62" rx="8" fill="#16a34a"/>
<text x="22" y="56" font-size="11" fill="#ffffff" opacity="0.85">01 · done</text>
<text x="22" y="78" font-size="13" font-weight="600" fill="#ffffff">Interactive charts</text>
</g>
<g>
<rect x="188" y="34" width="166" height="62" rx="8" fill="#2563eb"/>
<text x="200" y="56" font-size="11" fill="#ffffff" opacity="0.85">02</text>
<text x="200" y="78" font-size="13" font-weight="600" fill="#ffffff">Review workflow</text>
</g>
<g>
<rect x="366" y="34" width="166" height="62" rx="8" fill="#2563eb"/>
<text x="378" y="56" font-size="11" fill="#ffffff" opacity="0.85">03</text>
<text x="378" y="78" font-size="13" font-weight="600" fill="#ffffff">Audit export</text>
</g>
<g>
<rect x="544" y="34" width="166" height="62" rx="8" fill="#2563eb"/>
<text x="556" y="56" font-size="11" fill="#ffffff" opacity="0.85">04</text>
<text x="556" y="78" font-size="13" font-weight="600" fill="#ffffff">Test &amp; freeze API</text>
</g>

<g>
<rect x="10" y="106" width="166" height="62" rx="8" fill="#d97706"/>
<text x="22" y="128" font-size="11" fill="#ffffff" opacity="0.85">05</text>
<text x="22" y="150" font-size="13" font-weight="600" fill="#ffffff">National data</text>
</g>
<g>
<rect x="188" y="106" width="166" height="62" rx="8" fill="#d97706"/>
<text x="200" y="128" font-size="11" fill="#ffffff" opacity="0.85">06</text>
<text x="200" y="150" font-size="13" font-weight="600" fill="#ffffff">Scheduled refresh</text>
</g>
<g>
<rect x="366" y="106" width="166" height="62" rx="8" fill="#d97706"/>
<text x="378" y="128" font-size="11" fill="#ffffff" opacity="0.85">07</text>
<text x="378" y="150" font-size="13" font-weight="600" fill="#ffffff">Map view</text>
</g>
</g>

<g font-family="system-ui, sans-serif" font-size="11" fill="#888">
<rect x="10" y="190" width="12" height="12" rx="3" fill="#16a34a"/><text x="28" y="200">Done</text>
<rect x="80" y="190" width="12" height="12" rx="3" fill="#2563eb"/><text x="98" y="200">Core (ships in 1.0.0)</text>
<rect x="248" y="190" width="12" height="12" rx="3" fill="#d97706"/><text x="266" y="200">Larger effort</text>
</g>
</svg>
